<svg xmlns="http://www.w3.org/2000/svg" xmlns:xlink="http://www.w3.org/1999/xlink" width="96" zoomAndPan="magnify" viewBox="0 0 72 72" height="96" preserveAspectRatio="xMidYMid meet" version="1.0"><defs><g/><clipPath id="fba46bca0c"><path d="M 18 0.71875 L 64 0.71875 L 64 45.839844 L 18 45.839844 Z M 18 0.71875 " clip-rule="nonzero"/></clipPath><clipPath id="76accb7cde"><rect x="0" width="46" y="0" height="46"/></clipPath><clipPath id="b9047581f6"><rect x="0" width="24" y="0" height="12"/></clipPath><clipPath id="8fc993588a"><path d="M 0.601562 18 L 21 18 L 21 30 L 0.601562 30 Z M 0.601562 18 " clip-rule="nonzero"/></clipPath><clipPath id="19ac9aa1fb"><rect x="0" width="21" y="0" height="12"/></clipPath><clipPath id="be3f487b33"><path d="M 0.601562 22 L 21 22 L 21 39 L 0.601562 39 Z M 0.601562 22 " clip-rule="nonzero"/></clipPath><clipPath id="9f9d924dac"><path d="M 15 8 L 20.761719 8 L 20.761719 13 L 15 13 Z M 15 8 " clip-rule="nonzero"/></clipPath><clipPath id="f6b06b41f1"><rect x="0" width="21" y="0" height="17"/></clipPath><clipPath id="b39eb5614b"><path d="M 58 20 L 66.839844 20 L 66.839844 37 L 58 37 Z M 58 20 " clip-rule="nonzero"/></clipPath><clipPath id="f00ac61cde"><rect x="0" width="9" y="0" height="17"/></clipPath><clipPath id="7e4689588b"><rect x="0" width="67" y="0" height="46"/></clipPath></defs><g transform="matrix(1, 0, 0, 1, 3, 12)"><g clip-path="url(#7e4689588b)"><g clip-path="url(#fba46bca0c)"><g transform="matrix(1, 0, 0, 1, 18, -0.000000000000001776)"><g clip-path="url(#76accb7cde)"><g fill="#3a8abe" fill-opacity="1"><g transform="translate(0.762167, 33.688264)"><g><path d="M 6.015625 -0.25 C 5.722656 -0.25 5.492188 -0.296875 5.328125 -0.390625 C 5.160156 -0.484375 4.921875 -0.664062 4.609375 -0.9375 C 4.140625 -1.4375 3.769531 -1.953125 3.5 -2.484375 C 3.238281 -3.023438 3.144531 -3.5 3.21875 -3.90625 C 3.289062 -4.070312 3.320312 -4.238281 3.3125 -4.40625 C 3.300781 -4.570312 3.296875 -4.675781 3.296875 -4.71875 C 3.191406 -4.8125 3.140625 -4.875 3.140625 -4.90625 C 3.140625 -4.945312 3.164062 -4.984375 3.21875 -5.015625 C 3.269531 -5.054688 3.304688 -5.101562 3.328125 -5.15625 C 3.472656 -5.15625 3.519531 -5.285156 3.46875 -5.546875 C 3.414062 -5.734375 3.5 -6.148438 3.71875 -6.796875 C 3.9375 -7.441406 4.210938 -8.035156 4.546875 -8.578125 C 4.804688 -9.015625 5.191406 -9.550781 5.703125 -10.1875 C 6.210938 -10.832031 6.671875 -11.320312 7.078125 -11.65625 C 8.273438 -12.6875 9.347656 -13.304688 10.296875 -13.515625 C 10.773438 -13.640625 11.242188 -13.703125 11.703125 -13.703125 C 12.390625 -13.703125 12.925781 -13.507812 13.3125 -13.125 C 13.832031 -12.90625 14.210938 -12.59375 14.453125 -12.1875 C 14.691406 -11.789062 14.847656 -11.257812 14.921875 -10.59375 C 14.941406 -10.445312 14.953125 -10.207031 14.953125 -9.875 C 14.953125 -8.101562 14.285156 -6.265625 12.953125 -4.359375 C 12.398438 -3.578125 11.847656 -2.945312 11.296875 -2.46875 C 10.753906 -1.988281 10.085938 -1.507812 9.296875 -1.03125 C 8.867188 -0.75 8.414062 -0.5625 7.9375 -0.46875 C 7.457031 -0.375 6.816406 -0.300781 6.015625 -0.25 Z M 9.65625 -4.609375 C 10.113281 -5.015625 10.441406 -5.425781 10.640625 -5.84375 C 10.835938 -6.257812 11.128906 -6.992188 11.515625 -8.046875 C 11.660156 -8.265625 11.734375 -8.691406 11.734375 -9.328125 C 11.734375 -9.898438 11.648438 -10.222656 11.484375 -10.296875 C 11.359375 -10.390625 11.210938 -10.4375 11.046875 -10.4375 C 10.835938 -10.4375 10.492188 -10.269531 10.015625 -9.9375 C 9.179688 -9.226562 8.484375 -8.484375 7.921875 -7.703125 C 7.359375 -6.929688 6.972656 -6.046875 6.765625 -5.046875 C 6.734375 -4.953125 6.71875 -4.804688 6.71875 -4.609375 C 6.71875 -3.796875 7.003906 -3.390625 7.578125 -3.390625 C 8.128906 -3.390625 8.820312 -3.796875 9.65625 -4.609375 Z M 9.65625 -4.609375 "/></g></g></g><g fill="#3a8abe" fill-opacity="1"><g transform="translate(13.711609, 33.688264)"><g><path d="M 12.015625 -0.078125 C 11.804688 -0.285156 11.632812 -0.5625 11.5 -0.90625 C 11.363281 -1.257812 11.203125 -1.789062 11.015625 -2.5 C 10.960938 -2.644531 10.9375 -2.851562 10.9375 -3.125 C 10.9375 -3.40625 10.9375 -3.601562 10.9375 -3.71875 C 10.84375 -3.5 10.722656 -3.265625 10.578125 -3.015625 C 10.441406 -2.765625 10.300781 -2.59375 10.15625 -2.5 C 9.601562 -1.957031 9.054688 -1.550781 8.515625 -1.28125 C 7.753906 -0.8125 7.097656 -0.578125 6.546875 -0.578125 C 5.878906 -0.578125 5.304688 -0.882812 4.828125 -1.5 C 4.066406 -2.125 3.6875 -2.863281 3.6875 -3.71875 C 3.6875 -3.84375 3.707031 -4.070312 3.75 -4.40625 C 3.800781 -5.28125 3.925781 -6.125 4.125 -6.9375 C 4.332031 -7.75 4.722656 -8.785156 5.296875 -10.046875 L 6.359375 -12.203125 L 6.9375 -13.3125 C 7.0625 -13.351562 7.253906 -13.375 7.515625 -13.375 C 7.890625 -13.375 8.242188 -13.300781 8.578125 -13.15625 C 8.910156 -13.019531 9.09375 -12.832031 9.125 -12.59375 C 9.195312 -12.5 9.234375 -12.316406 9.234375 -12.046875 C 9.234375 -11.285156 8.910156 -10.273438 8.265625 -9.015625 L 7.96875 -8.328125 C 7.539062 -7.304688 7.234375 -6.507812 7.046875 -5.9375 C 6.859375 -5.363281 6.765625 -4.882812 6.765625 -4.5 C 6.765625 -4.125 6.90625 -3.875 7.1875 -3.75 C 7.3125 -3.675781 7.457031 -3.640625 7.625 -3.640625 C 8.09375 -3.640625 8.664062 -4.007812 9.34375 -4.75 C 10.03125 -5.488281 10.726562 -6.726562 11.4375 -8.46875 C 11.78125 -9.28125 11.984375 -10.117188 12.046875 -10.984375 C 12.003906 -11.242188 12.078125 -11.523438 12.265625 -11.828125 C 12.453125 -12.140625 12.703125 -12.394531 13.015625 -12.59375 C 13.109375 -12.726562 13.238281 -12.835938 13.40625 -12.921875 C 13.570312 -13.003906 13.679688 -13 13.734375 -12.90625 L 14.3125 -12.953125 C 14.375 -12.972656 14.484375 -12.863281 14.640625 -12.625 C 14.796875 -12.382812 14.910156 -12.242188 14.984375 -12.203125 C 15.222656 -12.003906 15.34375 -11.617188 15.34375 -11.046875 C 15.34375 -10.265625 15.054688 -9.179688 14.484375 -7.796875 C 14.035156 -6.835938 13.734375 -6.101562 13.578125 -5.59375 C 13.421875 -5.082031 13.332031 -4.585938 13.3125 -4.109375 C 13.3125 -3.609375 13.351562 -3.222656 13.4375 -2.953125 C 13.519531 -2.679688 13.726562 -2.398438 14.0625 -2.109375 C 14.4375 -1.847656 14.585938 -1.226562 14.515625 -0.25 C 14.472656 -0.0820312 14.34375 0.046875 14.125 0.140625 C 13.914062 0.234375 13.65625 0.28125 13.34375 0.28125 C 12.8125 0.28125 12.367188 0.160156 12.015625 -0.078125 Z M 12.015625 -0.078125 "/></g></g></g><g fill="#3a8abe" fill-opacity="1"><g transform="translate(26.94723, 33.688264)"><g><path d="M 6.109375 0.03125 C 5.734375 -0.0390625 5.304688 -0.34375 4.828125 -0.875 C 4.347656 -1.414062 4.050781 -1.875 3.9375 -2.25 C 3.9375 -2.300781 3.910156 -2.351562 3.859375 -2.40625 C 3.816406 -2.46875 3.78125 -2.515625 3.75 -2.546875 C 3.65625 -2.609375 3.609375 -3 3.609375 -3.71875 C 3.609375 -4.289062 3.640625 -4.882812 3.703125 -5.5 C 3.765625 -6.125 3.84375 -6.628906 3.9375 -7.015625 L 4.578125 -8.90625 L 5.078125 -10.34375 L 6.046875 -12.40625 L 4.609375 -12.796875 C 4.441406 -12.828125 4.304688 -12.910156 4.203125 -13.046875 C 4.097656 -13.191406 4.046875 -13.328125 4.046875 -13.453125 C 4.046875 -13.640625 4.144531 -13.910156 4.34375 -14.265625 C 4.550781 -14.628906 4.710938 -14.8125 4.828125 -14.8125 C 4.898438 -14.78125 5.09375 -14.765625 5.40625 -14.765625 C 6.113281 -14.765625 6.648438 -14.800781 7.015625 -14.875 C 7.253906 -14.96875 7.421875 -15.160156 7.515625 -15.453125 C 7.628906 -15.710938 7.742188 -15.929688 7.859375 -16.109375 C 7.984375 -16.285156 8.101562 -16.484375 8.21875 -16.703125 C 8.289062 -16.847656 8.40625 -17.066406 8.5625 -17.359375 C 8.71875 -17.660156 8.914062 -18.003906 9.15625 -18.390625 C 9.207031 -18.453125 9.316406 -18.617188 9.484375 -18.890625 C 9.648438 -19.171875 9.847656 -19.40625 10.078125 -19.59375 C 10.222656 -19.71875 10.414062 -19.820312 10.65625 -19.90625 C 10.894531 -19.988281 11.132812 -20.03125 11.375 -20.03125 C 11.800781 -20.03125 12.144531 -19.910156 12.40625 -19.671875 C 12.625 -19.335938 12.734375 -19.085938 12.734375 -18.921875 C 12.734375 -18.734375 12.640625 -18.484375 12.453125 -18.171875 C 12.304688 -17.878906 12.066406 -17.5 11.734375 -17.03125 C 11.441406 -16.59375 11.226562 -16.242188 11.09375 -15.984375 C 10.851562 -15.671875 10.734375 -15.429688 10.734375 -15.265625 C 10.734375 -15.097656 10.882812 -15.015625 11.1875 -15.015625 C 11.53125 -15.015625 12.09375 -15.085938 12.875 -15.234375 C 12.988281 -15.253906 13.15625 -15.265625 13.375 -15.265625 C 13.945312 -15.265625 14.351562 -15.097656 14.59375 -14.765625 C 14.832031 -14.429688 14.953125 -14.015625 14.953125 -13.515625 C 14.953125 -13.179688 14.835938 -12.976562 14.609375 -12.90625 C 14.378906 -12.832031 13.875 -12.796875 13.09375 -12.796875 C 12.332031 -12.679688 11.546875 -12.625 10.734375 -12.625 C 10.585938 -12.625 10.425781 -12.617188 10.25 -12.609375 C 10.070312 -12.597656 9.882812 -12.566406 9.6875 -12.515625 C 9.5 -12.472656 9.363281 -12.398438 9.28125 -12.296875 C 9.195312 -12.203125 9.109375 -12.050781 9.015625 -11.84375 C 8.941406 -11.769531 8.773438 -11.492188 8.515625 -11.015625 C 8.179688 -10.328125 7.96875 -9.910156 7.875 -9.765625 C 7.25 -7.953125 6.769531 -6.082031 6.4375 -4.15625 C 6.414062 -4.007812 6.40625 -3.828125 6.40625 -3.609375 C 6.40625 -3.296875 6.503906 -3.070312 6.703125 -2.9375 C 6.910156 -2.8125 7.3125 -2.75 7.90625 -2.75 C 8.570312 -2.75 9.203125 -2.832031 9.796875 -3 C 10.515625 -3.3125 11.050781 -3.578125 11.40625 -3.796875 C 11.625 -3.910156 11.820312 -4.019531 12 -4.125 C 12.175781 -4.238281 12.300781 -4.316406 12.375 -4.359375 C 12.46875 -4.554688 12.628906 -4.535156 12.859375 -4.296875 C 13.085938 -4.054688 13.257812 -3.78125 13.375 -3.46875 C 13.375 -3.039062 13.289062 -2.648438 13.125 -2.296875 C 12.957031 -1.953125 12.539062 -1.59375 11.875 -1.21875 C 11.113281 -0.738281 10.328125 -0.390625 9.515625 -0.171875 C 8.703125 0.0351562 7.9375 0.140625 7.21875 0.140625 C 6.8125 0.140625 6.441406 0.101562 6.109375 0.03125 Z M 6.109375 0.03125 "/></g></g></g></g></g></g><g transform="matrix(1, 0, 0, 1, 5, 13)"><g clip-path="url(#b9047581f6)"><g fill="#3a8abe" fill-opacity="1"><g transform="translate(1.084338, 8.936559)"><g><path d="M 2.390625 0.078125 C 1.035156 0.078125 0.359375 -0.660156 0.359375 -2.140625 C 0.359375 -2.878906 0.539062 -3.441406 0.90625 -3.828125 C 1.269531 -4.222656 1.796875 -4.421875 2.484375 -4.421875 C 2.992188 -4.421875 3.445312 -4.320312 3.84375 -4.125 L 3.484375 -3.21875 C 3.304688 -3.289062 3.132812 -3.347656 2.96875 -3.390625 C 2.8125 -3.441406 2.648438 -3.46875 2.484375 -3.46875 C 1.867188 -3.46875 1.5625 -3.03125 1.5625 -2.15625 C 1.5625 -1.300781 1.867188 -0.875 2.484375 -0.875 C 2.710938 -0.875 2.921875 -0.90625 3.109375 -0.96875 C 3.304688 -1.03125 3.503906 -1.128906 3.703125 -1.265625 L 3.703125 -0.25 C 3.515625 -0.125 3.320312 -0.0390625 3.125 0 C 2.925781 0.0507812 2.679688 0.078125 2.390625 0.078125 Z M 2.390625 0.078125 "/></g></g><g transform="translate(5.171572, 8.936559)"><g><path d="M 3.046875 -4.421875 C 3.203125 -4.421875 3.332031 -4.410156 3.4375 -4.390625 L 3.359375 -3.28125 C 3.265625 -3.300781 3.144531 -3.3125 3 -3.3125 C 2.625 -3.3125 2.332031 -3.210938 2.125 -3.015625 C 1.914062 -2.828125 1.8125 -2.554688 1.8125 -2.203125 L 1.8125 0 L 0.625 0 L 0.625 -4.34375 L 1.515625 -4.34375 L 1.6875 -3.609375 L 1.75 -3.609375 C 1.882812 -3.859375 2.066406 -4.054688 2.296875 -4.203125 C 2.523438 -4.347656 2.773438 -4.421875 3.046875 -4.421875 Z M 3.046875 -4.421875 "/></g></g><g transform="translate(8.78138, 8.936559)"><g><path d="M 3.375 0 L 3.15625 -0.59375 L 3.125 -0.59375 C 2.914062 -0.34375 2.707031 -0.164062 2.5 -0.0625 C 2.289062 0.03125 2.015625 0.078125 1.671875 0.078125 C 1.253906 0.078125 0.925781 -0.0390625 0.6875 -0.28125 C 0.445312 -0.519531 0.328125 -0.859375 0.328125 -1.296875 C 0.328125 -1.753906 0.488281 -2.09375 0.8125 -2.3125 C 1.132812 -2.53125 1.625 -2.648438 2.28125 -2.671875 L 3.03125 -2.703125 L 3.03125 -2.890625 C 3.03125 -3.328125 2.804688 -3.546875 2.359375 -3.546875 C 2.003906 -3.546875 1.59375 -3.441406 1.125 -3.234375 L 0.734375 -4.03125 C 1.234375 -4.300781 1.789062 -4.4375 2.40625 -4.4375 C 2.988281 -4.4375 3.429688 -4.304688 3.734375 -4.046875 C 4.046875 -3.796875 4.203125 -3.410156 4.203125 -2.890625 L 4.203125 0 Z M 3.03125 -2.015625 L 2.578125 -2 C 2.222656 -1.988281 1.960938 -1.925781 1.796875 -1.8125 C 1.628906 -1.695312 1.546875 -1.523438 1.546875 -1.296875 C 1.546875 -0.953125 1.738281 -0.78125 2.125 -0.78125 C 2.394531 -0.78125 2.613281 -0.859375 2.78125 -1.015625 C 2.945312 -1.179688 3.03125 -1.394531 3.03125 -1.65625 Z M 3.03125 -2.015625 "/></g></g><g transform="translate(13.582812, 8.936559)"><g><path d="M 3.65625 -1.296875 C 3.65625 -0.847656 3.5 -0.503906 3.1875 -0.265625 C 2.875 -0.0351562 2.410156 0.078125 1.796875 0.078125 C 1.484375 0.078125 1.210938 0.0546875 0.984375 0.015625 C 0.765625 -0.0234375 0.554688 -0.0859375 0.359375 -0.171875 L 0.359375 -1.15625 C 0.578125 -1.050781 0.820312 -0.960938 1.09375 -0.890625 C 1.375 -0.816406 1.625 -0.78125 1.84375 -0.78125 C 2.269531 -0.78125 2.484375 -0.90625 2.484375 -1.15625 C 2.484375 -1.25 2.453125 -1.320312 2.390625 -1.375 C 2.335938 -1.4375 2.238281 -1.503906 2.09375 -1.578125 C 1.957031 -1.660156 1.773438 -1.75 1.546875 -1.84375 C 1.210938 -1.976562 0.96875 -2.101562 0.8125 -2.21875 C 0.65625 -2.34375 0.539062 -2.484375 0.46875 -2.640625 C 0.394531 -2.796875 0.359375 -2.988281 0.359375 -3.21875 C 0.359375 -3.601562 0.503906 -3.898438 0.796875 -4.109375 C 1.097656 -4.316406 1.523438 -4.421875 2.078125 -4.421875 C 2.597656 -4.421875 3.109375 -4.304688 3.609375 -4.078125 L 3.25 -3.234375 C 3.03125 -3.316406 2.828125 -3.390625 2.640625 -3.453125 C 2.453125 -3.515625 2.257812 -3.546875 2.0625 -3.546875 C 1.707031 -3.546875 1.53125 -3.453125 1.53125 -3.265625 C 1.53125 -3.160156 1.585938 -3.066406 1.703125 -2.984375 C 1.816406 -2.910156 2.0625 -2.796875 2.4375 -2.640625 C 2.78125 -2.503906 3.03125 -2.375 3.1875 -2.25 C 3.34375 -2.132812 3.457031 -2 3.53125 -1.84375 C 3.613281 -1.6875 3.65625 -1.503906 3.65625 -1.296875 Z M 3.65625 -1.296875 "/></g></g><g transform="translate(17.534193, 8.936559)"><g><path d="M 4.625 0 L 3.4375 0 L 3.4375 -2.53125 C 3.4375 -3.15625 3.207031 -3.46875 2.75 -3.46875 C 2.414062 -3.46875 2.175781 -3.351562 2.03125 -3.125 C 1.882812 -2.90625 1.8125 -2.546875 1.8125 -2.046875 L 1.8125 0 L 0.625 0 L 0.625 -6.046875 L 1.8125 -6.046875 L 1.8125 -4.8125 C 1.8125 -4.71875 1.800781 -4.492188 1.78125 -4.140625 L 1.75 -3.78125 L 1.8125 -3.78125 C 2.070312 -4.207031 2.492188 -4.421875 3.078125 -4.421875 C 3.585938 -4.421875 3.972656 -4.28125 4.234375 -4 C 4.492188 -3.726562 4.625 -3.335938 4.625 -2.828125 Z M 4.625 0 "/></g></g></g></g></g><g clip-path="url(#8fc993588a)"><g transform="matrix(1, 0, 0, 1, 0, 18)"><g clip-path="url(#19ac9aa1fb)"><g fill="#3a8abe" fill-opacity="1"><g transform="translate(1.131888, 8.649778)"><g><path d="M 3.03125 -4.421875 C 3.550781 -4.421875 3.953125 -4.21875 4.234375 -3.8125 C 4.523438 -3.414062 4.671875 -2.867188 4.671875 -2.171875 C 4.671875 -1.460938 4.519531 -0.910156 4.21875 -0.515625 C 3.925781 -0.117188 3.519531 0.078125 3 0.078125 C 2.488281 0.078125 2.09375 -0.109375 1.8125 -0.484375 L 1.71875 -0.484375 L 1.53125 0 L 0.625 0 L 0.625 -6.046875 L 1.8125 -6.046875 L 1.8125 -4.640625 C 1.8125 -4.460938 1.796875 -4.175781 1.765625 -3.78125 L 1.8125 -3.78125 C 2.082031 -4.207031 2.488281 -4.421875 3.03125 -4.421875 Z M 2.65625 -3.46875 C 2.363281 -3.46875 2.148438 -3.378906 2.015625 -3.203125 C 1.878906 -3.023438 1.8125 -2.726562 1.8125 -2.3125 L 1.8125 -2.1875 C 1.8125 -1.71875 1.878906 -1.378906 2.015625 -1.171875 C 2.148438 -0.972656 2.367188 -0.875 2.671875 -0.875 C 2.910156 -0.875 3.101562 -0.984375 3.25 -1.203125 C 3.394531 -1.429688 3.46875 -1.757812 3.46875 -2.1875 C 3.46875 -2.613281 3.394531 -2.929688 3.25 -3.140625 C 3.101562 -3.359375 2.90625 -3.46875 2.65625 -3.46875 Z M 2.65625 -3.46875 "/></g></g><g transform="translate(6.16233, 8.649778)"><g><path d="M 3.703125 0 L 3.53125 -0.5625 L 3.46875 -0.5625 C 3.34375 -0.351562 3.164062 -0.191406 2.9375 -0.078125 C 2.707031 0.0234375 2.441406 0.078125 2.140625 0.078125 C 1.628906 0.078125 1.242188 -0.0546875 0.984375 -0.328125 C 0.722656 -0.597656 0.59375 -0.992188 0.59375 -1.515625 L 0.59375 -4.34375 L 1.78125 -4.34375 L 1.78125 -1.8125 C 1.78125 -1.488281 1.832031 -1.25 1.9375 -1.09375 C 2.050781 -0.9375 2.234375 -0.859375 2.484375 -0.859375 C 2.816406 -0.859375 3.054688 -0.96875 3.203125 -1.1875 C 3.347656 -1.414062 3.421875 -1.785156 3.421875 -2.296875 L 3.421875 -4.34375 L 4.609375 -4.34375 L 4.609375 0 Z M 3.703125 0 "/></g></g><g transform="translate(11.386847, 8.649778)"><g><path d="M 3.046875 -4.421875 C 3.203125 -4.421875 3.332031 -4.410156 3.4375 -4.390625 L 3.359375 -3.28125 C 3.265625 -3.300781 3.144531 -3.3125 3 -3.3125 C 2.625 -3.3125 2.332031 -3.210938 2.125 -3.015625 C 1.914062 -2.828125 1.8125 -2.554688 1.8125 -2.203125 L 1.8125 0 L 0.625 0 L 0.625 -4.34375 L 1.515625 -4.34375 L 1.6875 -3.609375 L 1.75 -3.609375 C 1.882812 -3.859375 2.066406 -4.054688 2.296875 -4.203125 C 2.523438 -4.347656 2.773438 -4.421875 3.046875 -4.421875 Z M 3.046875 -4.421875 "/></g></g><g transform="translate(14.996655, 8.649778)"><g><path d="M 4.625 0 L 3.4375 0 L 3.4375 -2.53125 C 3.4375 -2.84375 3.378906 -3.078125 3.265625 -3.234375 C 3.160156 -3.390625 2.988281 -3.46875 2.75 -3.46875 C 2.414062 -3.46875 2.175781 -3.359375 2.03125 -3.140625 C 1.882812 -2.921875 1.8125 -2.554688 1.8125 -2.046875 L 1.8125 0 L 0.625 0 L 0.625 -4.34375 L 1.53125 -4.34375 L 1.6875 -3.78125 L 1.75 -3.78125 C 1.882812 -3.988281 2.066406 -4.144531 2.296875 -4.25 C 2.523438 -4.363281 2.789062 -4.421875 3.09375 -4.421875 C 3.59375 -4.421875 3.972656 -4.285156 4.234375 -4.015625 C 4.492188 -3.742188 4.625 -3.347656 4.625 -2.828125 Z M 4.625 0 "/></g></g></g></g></g></g><g clip-path="url(#be3f487b33)"><g transform="matrix(1, 0, 0, 1, 0, 22)"><g clip-path="url(#f6b06b41f1)"><g fill="#3a8abe" fill-opacity="1"><g transform="translate(1.609639, 12.523015)"><g><path d="M 2.03125 0.015625 C 1.90625 -0.015625 1.765625 -0.117188 1.609375 -0.296875 C 1.453125 -0.472656 1.351562 -0.625 1.3125 -0.75 C 1.3125 -0.769531 1.300781 -0.785156 1.28125 -0.796875 C 1.269531 -0.816406 1.257812 -0.832031 1.25 -0.84375 C 1.21875 -0.863281 1.203125 -0.992188 1.203125 -1.234375 C 1.203125 -1.429688 1.210938 -1.628906 1.234375 -1.828125 C 1.253906 -2.035156 1.28125 -2.207031 1.3125 -2.34375 L 1.53125 -2.96875 L 1.6875 -3.453125 L 2.015625 -4.140625 L 1.53125 -4.265625 C 1.476562 -4.273438 1.429688 -4.300781 1.390625 -4.34375 C 1.359375 -4.394531 1.34375 -4.441406 1.34375 -4.484375 C 1.34375 -4.546875 1.375 -4.632812 1.4375 -4.75 C 1.507812 -4.875 1.566406 -4.9375 1.609375 -4.9375 C 1.628906 -4.925781 1.691406 -4.921875 1.796875 -4.921875 C 2.035156 -4.921875 2.21875 -4.929688 2.34375 -4.953125 C 2.414062 -4.984375 2.46875 -5.050781 2.5 -5.15625 C 2.539062 -5.238281 2.582031 -5.304688 2.625 -5.359375 C 2.664062 -5.421875 2.703125 -5.488281 2.734375 -5.5625 C 2.765625 -5.613281 2.804688 -5.6875 2.859375 -5.78125 C 2.910156 -5.882812 2.972656 -6 3.046875 -6.125 C 3.066406 -6.144531 3.101562 -6.203125 3.15625 -6.296875 C 3.21875 -6.390625 3.285156 -6.46875 3.359375 -6.53125 C 3.410156 -6.570312 3.472656 -6.601562 3.546875 -6.625 C 3.628906 -6.65625 3.710938 -6.671875 3.796875 -6.671875 C 3.929688 -6.671875 4.046875 -6.632812 4.140625 -6.5625 C 4.210938 -6.445312 4.25 -6.363281 4.25 -6.3125 C 4.25 -6.25 4.21875 -6.164062 4.15625 -6.0625 C 4.101562 -5.957031 4.019531 -5.828125 3.90625 -5.671875 C 3.8125 -5.523438 3.742188 -5.410156 3.703125 -5.328125 C 3.617188 -5.222656 3.578125 -5.144531 3.578125 -5.09375 C 3.578125 -5.03125 3.628906 -5 3.734375 -5 C 3.847656 -5 4.035156 -5.023438 4.296875 -5.078125 C 4.328125 -5.085938 4.378906 -5.09375 4.453125 -5.09375 C 4.648438 -5.09375 4.785156 -5.035156 4.859375 -4.921875 C 4.941406 -4.804688 4.984375 -4.664062 4.984375 -4.5 C 4.984375 -4.394531 4.941406 -4.328125 4.859375 -4.296875 C 4.785156 -4.273438 4.617188 -4.265625 4.359375 -4.265625 C 4.109375 -4.222656 3.847656 -4.203125 3.578125 -4.203125 C 3.523438 -4.203125 3.46875 -4.203125 3.40625 -4.203125 C 3.351562 -4.203125 3.296875 -4.191406 3.234375 -4.171875 C 3.171875 -4.160156 3.125 -4.132812 3.09375 -4.09375 C 3.0625 -4.0625 3.03125 -4.015625 3 -3.953125 C 2.976562 -3.921875 2.925781 -3.828125 2.84375 -3.671875 C 2.726562 -3.441406 2.65625 -3.300781 2.625 -3.25 C 2.414062 -2.644531 2.253906 -2.023438 2.140625 -1.390625 C 2.140625 -1.335938 2.140625 -1.273438 2.140625 -1.203125 C 2.140625 -1.097656 2.171875 -1.023438 2.234375 -0.984375 C 2.304688 -0.941406 2.441406 -0.921875 2.640625 -0.921875 C 2.859375 -0.921875 3.066406 -0.945312 3.265625 -1 C 3.503906 -1.101562 3.679688 -1.191406 3.796875 -1.265625 C 3.867188 -1.304688 3.9375 -1.34375 4 -1.375 C 4.0625 -1.414062 4.101562 -1.441406 4.125 -1.453125 C 4.15625 -1.515625 4.207031 -1.503906 4.28125 -1.421875 C 4.363281 -1.347656 4.421875 -1.257812 4.453125 -1.15625 C 4.453125 -1.007812 4.425781 -0.878906 4.375 -0.765625 C 4.320312 -0.648438 4.179688 -0.53125 3.953125 -0.40625 C 3.703125 -0.25 3.441406 -0.132812 3.171875 -0.0625 C 2.898438 0.0078125 2.644531 0.046875 2.40625 0.046875 C 2.269531 0.046875 2.144531 0.0351562 2.03125 0.015625 Z M 2.03125 0.015625 "/></g></g></g><g fill="#3a8abe" fill-opacity="1"><g transform="translate(5.556517, 12.523015)"><g><path d="M 4 -0.03125 C 3.9375 -0.09375 3.878906 -0.179688 3.828125 -0.296875 C 3.785156 -0.421875 3.734375 -0.597656 3.671875 -0.828125 C 3.648438 -0.878906 3.640625 -0.953125 3.640625 -1.046875 C 3.640625 -1.140625 3.640625 -1.203125 3.640625 -1.234375 C 3.609375 -1.160156 3.566406 -1.082031 3.515625 -1 C 3.472656 -0.914062 3.429688 -0.859375 3.390625 -0.828125 C 3.203125 -0.648438 3.019531 -0.515625 2.84375 -0.421875 C 2.582031 -0.265625 2.363281 -0.1875 2.1875 -0.1875 C 1.957031 -0.1875 1.765625 -0.289062 1.609375 -0.5 C 1.359375 -0.707031 1.234375 -0.953125 1.234375 -1.234375 C 1.234375 -1.273438 1.238281 -1.351562 1.25 -1.46875 C 1.269531 -1.757812 1.3125 -2.039062 1.375 -2.3125 C 1.445312 -2.582031 1.578125 -2.925781 1.765625 -3.34375 L 2.3125 -4.4375 C 2.351562 -4.445312 2.414062 -4.453125 2.5 -4.453125 C 2.625 -4.453125 2.742188 -4.425781 2.859375 -4.375 C 2.972656 -4.332031 3.035156 -4.273438 3.046875 -4.203125 C 3.066406 -4.171875 3.078125 -4.109375 3.078125 -4.015625 C 3.078125 -3.765625 2.96875 -3.425781 2.75 -3 L 2.65625 -2.78125 C 2.507812 -2.4375 2.40625 -2.164062 2.34375 -1.96875 C 2.28125 -1.78125 2.25 -1.625 2.25 -1.5 C 2.25 -1.375 2.296875 -1.289062 2.390625 -1.25 C 2.429688 -1.226562 2.484375 -1.21875 2.546875 -1.21875 C 2.703125 -1.21875 2.890625 -1.335938 3.109375 -1.578125 C 3.335938 -1.828125 3.570312 -2.242188 3.8125 -2.828125 C 3.925781 -3.097656 3.992188 -3.375 4.015625 -3.65625 C 4.003906 -3.75 4.03125 -3.84375 4.09375 -3.9375 C 4.15625 -4.039062 4.238281 -4.128906 4.34375 -4.203125 C 4.375 -4.242188 4.414062 -4.273438 4.46875 -4.296875 C 4.519531 -4.328125 4.554688 -4.328125 4.578125 -4.296875 L 4.765625 -4.3125 C 4.785156 -4.320312 4.820312 -4.285156 4.875 -4.203125 C 4.925781 -4.128906 4.96875 -4.082031 5 -4.0625 C 5.070312 -4 5.109375 -3.875 5.109375 -3.6875 C 5.109375 -3.425781 5.015625 -3.0625 4.828125 -2.59375 C 4.679688 -2.28125 4.582031 -2.035156 4.53125 -1.859375 C 4.476562 -1.691406 4.445312 -1.53125 4.4375 -1.375 C 4.4375 -1.207031 4.445312 -1.078125 4.46875 -0.984375 C 4.5 -0.890625 4.570312 -0.796875 4.6875 -0.703125 C 4.8125 -0.617188 4.863281 -0.410156 4.84375 -0.078125 C 4.820312 -0.0234375 4.773438 0.015625 4.703125 0.046875 C 4.640625 0.078125 4.554688 0.09375 4.453125 0.09375 C 4.273438 0.09375 4.125 0.0507812 4 -0.03125 Z M 4 -0.03125 "/></g></g></g><g fill="#3a8abe" fill-opacity="1"><g transform="translate(9.968433, 12.523015)"><g><path d="M 1.421875 -0.328125 C 1.304688 -0.410156 1.21875 -0.488281 1.15625 -0.5625 C 1.09375 -0.644531 1.070312 -0.757812 1.09375 -0.90625 C 1.113281 -1.175781 1.175781 -1.488281 1.28125 -1.84375 L 1.328125 -2.09375 C 1.359375 -2.300781 1.484375 -2.71875 1.703125 -3.34375 C 1.929688 -3.976562 2.125 -4.410156 2.28125 -4.640625 C 2.351562 -4.710938 2.488281 -4.75 2.6875 -4.75 C 2.84375 -4.75 2.953125 -4.71875 3.015625 -4.65625 C 3.078125 -4.613281 3.109375 -4.535156 3.109375 -4.421875 C 3.109375 -4.242188 2.992188 -3.921875 2.765625 -3.453125 L 2.640625 -3.203125 C 2.585938 -3.097656 2.539062 -3.003906 2.5 -2.921875 C 2.46875 -2.835938 2.472656 -2.796875 2.515625 -2.796875 C 2.597656 -2.953125 2.804688 -3.160156 3.140625 -3.421875 C 3.484375 -3.679688 3.71875 -3.84375 3.84375 -3.90625 C 3.90625 -3.9375 3.976562 -3.96875 4.0625 -4 C 4.15625 -4.03125 4.21875 -4.054688 4.25 -4.078125 C 4.382812 -4.148438 4.546875 -4.1875 4.734375 -4.1875 C 4.859375 -4.1875 4.96875 -4.164062 5.0625 -4.125 C 5.15625 -4.09375 5.21875 -4.039062 5.25 -3.96875 C 5.25 -3.914062 5.265625 -3.875 5.296875 -3.84375 C 5.335938 -3.8125 5.367188 -3.789062 5.390625 -3.78125 C 5.410156 -3.78125 5.425781 -3.769531 5.4375 -3.75 C 5.445312 -3.726562 5.453125 -3.710938 5.453125 -3.703125 C 5.453125 -3.640625 5.394531 -3.554688 5.28125 -3.453125 C 5.164062 -3.359375 5.050781 -3.304688 4.9375 -3.296875 C 4.84375 -3.296875 4.75 -3.273438 4.65625 -3.234375 C 4.5625 -3.203125 4.46875 -3.164062 4.375 -3.125 L 4.0625 -2.9375 C 3.789062 -2.800781 3.5625 -2.664062 3.375 -2.53125 C 3.1875 -2.40625 3 -2.238281 2.8125 -2.03125 C 2.769531 -2 2.710938 -1.945312 2.640625 -1.875 C 2.566406 -1.800781 2.5 -1.71875 2.4375 -1.625 C 2.382812 -1.5625 2.328125 -1.410156 2.265625 -1.171875 C 2.210938 -0.941406 2.1875 -0.800781 2.1875 -0.75 C 2.175781 -0.726562 2.15625 -0.679688 2.125 -0.609375 C 2.101562 -0.535156 2.070312 -0.472656 2.03125 -0.421875 C 1.957031 -0.328125 1.894531 -0.257812 1.84375 -0.21875 C 1.800781 -0.1875 1.75 -0.171875 1.6875 -0.171875 C 1.613281 -0.171875 1.523438 -0.222656 1.421875 -0.328125 Z M 1.421875 -0.328125 "/></g></g></g><g clip-path="url(#9f9d924dac)"><g fill="#3a8abe" fill-opacity="1"><g transform="translate(14.261114, 12.523015)"><g><path d="M 5.265625 -0.28125 C 4.765625 -0.300781 4.515625 -0.582031 4.515625 -1.125 C 4.515625 -1.28125 4.523438 -1.429688 4.546875 -1.578125 C 4.566406 -1.753906 4.578125 -1.875 4.578125 -1.9375 L 4.578125 -2.140625 C 4.554688 -2.296875 4.503906 -2.375 4.421875 -2.375 C 4.273438 -2.375 4.007812 -2.234375 3.625 -1.953125 C 3.238281 -1.679688 2.835938 -1.359375 2.421875 -0.984375 C 2.296875 -0.847656 2.1875 -0.71875 2.09375 -0.59375 C 2.019531 -0.488281 1.960938 -0.425781 1.921875 -0.40625 C 1.878906 -0.382812 1.816406 -0.375 1.734375 -0.375 C 1.617188 -0.382812 1.488281 -0.460938 1.34375 -0.609375 C 1.195312 -0.765625 1.101562 -0.90625 1.0625 -1.03125 C 1.0625 -1.25 1.097656 -1.457031 1.171875 -1.65625 C 1.253906 -1.863281 1.375 -2.125 1.53125 -2.4375 C 1.601562 -2.675781 1.695312 -2.910156 1.8125 -3.140625 C 1.925781 -3.421875 2.007812 -3.632812 2.0625 -3.78125 C 2.113281 -3.925781 2.148438 -4.082031 2.171875 -4.25 C 2.171875 -4.25 2.164062 -4.25 2.15625 -4.25 C 2.15625 -4.28125 2.164062 -4.304688 2.1875 -4.328125 C 2.21875 -4.359375 2.25 -4.375 2.28125 -4.375 C 2.289062 -4.394531 2.335938 -4.40625 2.421875 -4.40625 C 2.628906 -4.40625 2.804688 -4.347656 2.953125 -4.234375 C 3.109375 -4.128906 3.1875 -3.960938 3.1875 -3.734375 C 3.1875 -3.609375 3.160156 -3.492188 3.109375 -3.390625 C 3.066406 -3.285156 2.988281 -3.109375 2.875 -2.859375 L 2.734375 -2.59375 C 2.710938 -2.550781 2.675781 -2.484375 2.625 -2.390625 C 2.582031 -2.296875 2.5625 -2.238281 2.5625 -2.21875 C 2.757812 -2.351562 2.992188 -2.53125 3.265625 -2.75 C 3.660156 -3.070312 3.984375 -3.316406 4.234375 -3.484375 C 4.492188 -3.660156 4.679688 -3.75 4.796875 -3.75 C 4.898438 -3.75 5.046875 -3.691406 5.234375 -3.578125 C 5.421875 -3.460938 5.53125 -3.359375 5.5625 -3.265625 C 5.5625 -3.210938 5.554688 -3.128906 5.546875 -3.015625 C 5.535156 -2.898438 5.523438 -2.800781 5.515625 -2.71875 L 5.53125 -2.34375 C 5.539062 -2.28125 5.546875 -2.1875 5.546875 -2.0625 C 5.546875 -1.8125 5.53125 -1.632812 5.5 -1.53125 C 5.507812 -1.519531 5.515625 -1.503906 5.515625 -1.484375 C 5.523438 -1.472656 5.53125 -1.460938 5.53125 -1.453125 L 5.515625 -1.4375 C 5.523438 -1.351562 5.566406 -1.222656 5.640625 -1.046875 C 5.722656 -0.867188 5.765625 -0.773438 5.765625 -0.765625 C 5.765625 -0.671875 5.707031 -0.570312 5.59375 -0.46875 C 5.476562 -0.363281 5.367188 -0.300781 5.265625 -0.28125 Z M 5.265625 -0.28125 "/></g></g></g></g></g></g></g><g clip-path="url(#b39eb5614b)"><g transform="matrix(1, 0, 0, 1, 58, 20)"><g clip-path="url(#f00ac61cde)"><g fill="#3a8abe" fill-opacity="1"><g transform="translate(0.938343, 12.479294)"><g><path d="M 4.453125 0.21875 C 4.347656 0.25 4.25 0.226562 4.15625 0.15625 C 4.0625 0.0820312 3.992188 0 3.953125 -0.09375 C 3.910156 -0.207031 3.878906 -0.316406 3.859375 -0.421875 C 3.847656 -0.523438 3.835938 -0.671875 3.828125 -0.859375 L 3.8125 -1.265625 L 3.328125 -0.828125 C 2.828125 -0.359375 2.363281 -0.125 1.9375 -0.125 C 1.800781 -0.144531 1.632812 -0.25 1.4375 -0.4375 C 1.25 -0.632812 1.128906 -0.800781 1.078125 -0.9375 C 1.046875 -1 1.03125 -1.097656 1.03125 -1.234375 C 1.03125 -1.535156 1.109375 -1.894531 1.265625 -2.3125 C 1.421875 -2.738281 1.617188 -3.082031 1.859375 -3.34375 C 2.035156 -3.613281 2.242188 -3.816406 2.484375 -3.953125 C 2.734375 -4.085938 2.988281 -4.15625 3.25 -4.15625 C 3.476562 -4.15625 3.6875 -4.101562 3.875 -4 C 3.988281 -3.9375 4.082031 -3.90625 4.15625 -3.90625 C 4.226562 -3.90625 4.273438 -3.957031 4.296875 -4.0625 C 4.304688 -4.101562 4.359375 -4.265625 4.453125 -4.546875 L 4.578125 -4.921875 C 4.753906 -5.441406 4.90625 -5.863281 5.03125 -6.1875 C 5.15625 -6.507812 5.3125 -6.859375 5.5 -7.234375 C 5.570312 -7.398438 5.648438 -7.519531 5.734375 -7.59375 C 5.828125 -7.675781 5.910156 -7.71875 5.984375 -7.71875 C 6.085938 -7.71875 6.203125 -7.679688 6.328125 -7.609375 C 6.453125 -7.546875 6.53125 -7.460938 6.5625 -7.359375 C 6.59375 -7.296875 6.609375 -7.226562 6.609375 -7.15625 C 6.609375 -7.0625 6.582031 -6.96875 6.53125 -6.875 C 6.320312 -6.519531 6.066406 -5.9375 5.765625 -5.125 C 5.460938 -4.3125 5.226562 -3.609375 5.0625 -3.015625 C 5 -2.796875 4.953125 -2.492188 4.921875 -2.109375 C 4.898438 -1.734375 4.890625 -1.363281 4.890625 -1 C 4.890625 -0.65625 4.898438 -0.4375 4.921875 -0.34375 C 4.941406 -0.300781 4.953125 -0.238281 4.953125 -0.15625 C 4.953125 -0.0195312 4.90625 0.0703125 4.8125 0.125 C 4.71875 0.175781 4.597656 0.207031 4.453125 0.21875 Z M 2.484375 -1.21875 C 2.671875 -1.289062 2.875 -1.410156 3.09375 -1.578125 C 3.332031 -1.753906 3.503906 -1.90625 3.609375 -2.03125 C 3.722656 -2.164062 3.8125 -2.335938 3.875 -2.546875 C 3.894531 -2.585938 3.90625 -2.644531 3.90625 -2.71875 C 3.90625 -2.863281 3.835938 -2.992188 3.703125 -3.109375 C 3.617188 -3.171875 3.523438 -3.203125 3.421875 -3.203125 C 3.253906 -3.203125 3.078125 -3.113281 2.890625 -2.9375 C 2.691406 -2.75 2.523438 -2.535156 2.390625 -2.296875 C 2.265625 -2.066406 2.160156 -1.75 2.078125 -1.34375 C 2.054688 -1.289062 2.0625 -1.242188 2.09375 -1.203125 C 2.125 -1.171875 2.175781 -1.15625 2.25 -1.15625 C 2.3125 -1.15625 2.390625 -1.175781 2.484375 -1.21875 Z M 2.484375 -1.21875 "/></g></g></g></g></g></g></g></g></svg>
